Normalized EMG Linear Envelopes
nRows=27
nColumns=17

endheader
time	        VM	        VL	        RF	       GRA	        TA	   ADDLONG	   SEMIMEM	      BFLH	        GM	        GL	       TFL	   GLUTMAX	   GLUTMED	      PIRI	    OBTINT	        QF	
2.795	  0.518235	  0.345687	  0.053392	  0.427317	  0.340759	  0.112215	  0.843442	  1.088036	  0.463765	  0.186738	  0.034131	  0.485406	  0.144196	  0.524485	  1.091314	  0.982471	
2.7955	  0.523385	  0.349978	  0.054082	  0.426652	  0.337781	  0.112148	  0.837879	  1.081011	  0.465448	  0.188027	  0.034791	  0.488849	  0.144807	  0.526626	  1.089848	  0.986619	
2.796	  0.528519	  0.354265	  0.054772	  0.425981	  0.334801	  0.112072	  0.832296	  1.073911	  0.467134	  0.189339	  0.035462	  0.492286	  0.145436	  0.528778	  1.088349	  0.990674	
2.7965	  0.533637	  0.358546	  0.055461	  0.425305	  0.331822	  0.111988	  0.826693	  1.066736	  0.468825	  0.190674	  0.036142	  0.495716	  0.146084	  0.530940	  1.086816	  0.994635	
2.797	  0.538737	  0.362822	  0.056149	  0.424624	  0.328844	  0.111897	  0.821071	  1.059489	  0.470522	  0.192032	  0.036833	  0.499138	  0.146749	  0.533111	  1.085248	  0.998500	
2.7975	  0.543820	  0.367093	  0.056835	  0.423936	  0.325870	  0.111798	  0.815430	  1.052169	  0.472225	  0.193413	  0.037534	  0.502551	  0.147431	  0.535291	  1.083646	  1.002267	
2.798	  0.548885	  0.371357	  0.057519	  0.423242	  0.322901	  0.111691	  0.809771	  1.044780	  0.473936	  0.194817	  0.038244	  0.505953	  0.148131	  0.537477	  1.082007	  1.005934	
2.7985	  0.553931	  0.375615	  0.058202	  0.422541	  0.319938	  0.111576	  0.804093	  1.037322	  0.475656	  0.196244	  0.038964	  0.509342	  0.148848	  0.539669	  1.080332	  1.009498	
2.799	  0.558959	  0.379867	  0.058882	  0.421831	  0.316982	  0.111454	  0.798396	  1.029799	  0.477388	  0.197694	  0.039695	  0.512717	  0.149582	  0.541865	  1.078619	  1.012958	
2.7995	  0.563968	  0.384111	  0.059560	  0.421113	  0.314037	  0.111324	  0.792681	  1.022214	  0.479131	  0.199166	  0.040435	  0.516076	  0.150331	  0.544065	  1.076868	  1.016311	
2.8	  0.568957	  0.388349	  0.060235	  0.420386	  0.311101	  0.111186	  0.786947	  1.014571	  0.480889	  0.200661	  0.041185	  0.519418	  0.151097	  0.546267	  1.075079	  1.019555	
2.8005	  0.573926	  0.392579	  0.060907	  0.419648	  0.308178	  0.111041	  0.781193	  1.006874	  0.482661	  0.202178	  0.041944	  0.522740	  0.151878	  0.548468	  1.073251	  1.022688	
2.801	  0.578875	  0.396800	  0.061575	  0.418898	  0.305268	  0.110888	  0.775419	  0.999127	  0.484450	  0.203719	  0.042713	  0.526040	  0.152674	  0.550668	  1.071384	  1.025707	
2.8015	  0.583801	  0.401013	  0.062240	  0.418136	  0.302372	  0.110727	  0.769624	  0.991335	  0.486258	  0.205282	  0.043492	  0.529317	  0.153483	  0.552865	  1.069478	  1.028612	
2.802	  0.588706	  0.405216	  0.062901	  0.417361	  0.299491	  0.110558	  0.763807	  0.983501	  0.488086	  0.206869	  0.044280	  0.532568	  0.154307	  0.555057	  1.067534	  1.031399	
2.8025	  0.593586	  0.409410	  0.063558	  0.416570	  0.296626	  0.110381	  0.757966	  0.975629	  0.489937	  0.208479	  0.045078	  0.535792	  0.155143	  0.557242	  1.065553	  1.034066	
2.803	  0.598443	  0.413593	  0.064211	  0.415764	  0.293779	  0.110197	  0.752100	  0.967723	  0.491813	  0.210113	  0.045885	  0.538986	  0.155992	  0.559418	  1.063535	  1.036612	
2.8035	  0.603274	  0.417764	  0.064859	  0.414939	  0.290951	  0.110005	  0.746208	  0.959786	  0.493716	  0.211769	  0.046701	  0.542149	  0.156852	  0.561584	  1.061480	  1.039033	
2.804	  0.608079	  0.421925	  0.065503	  0.414096	  0.288141	  0.109805	  0.740288	  0.951821	  0.495648	  0.213449	  0.047527	  0.545277	  0.157722	  0.563737	  1.059388	  1.041329	
2.8045	  0.612856	  0.426074	  0.066141	  0.413233	  0.285352	  0.109597	  0.734341	  0.943832	  0.497612	  0.215152	  0.048362	  0.548370	  0.158603	  0.565875	  1.057259	  1.043497	
2.805	  0.617604	  0.430210	  0.066775	  0.412349	  0.282583	  0.109382	  0.728366	  0.935822	  0.499608	  0.216879	  0.049206	  0.551424	  0.159493	  0.567997	  1.055093	  1.045539	
2.8055	  0.622321	  0.434334	  0.067403	  0.411443	  0.279836	  0.109158	  0.722362	  0.927794	  0.501640	  0.218628	  0.050059	  0.554436	  0.160391	  0.570100	  1.052891	  1.047454	
2.806	  0.627007	  0.438444	  0.068027	  0.410513	  0.277111	  0.108926	  0.716329	  0.919752	  0.503708	  0.220400	  0.050921	  0.557404	  0.161296	  0.572183	  1.050651	  1.049244	
2.8065	  0.631660	  0.442540	  0.068645	  0.409560	  0.274409	  0.108687	  0.710268	  0.911697	  0.505815	  0.222195	  0.051792	  0.560326	  0.162208	  0.574243	  1.048375	  1.050911	
2.807	  0.636277	  0.446621	  0.069257	  0.408582	  0.271730	  0.108439	  0.704179	  0.903635	  0.507963	  0.224013	  0.052672	  0.563198	  0.163126	  0.576279	  1.046064	  1.052455	
2.8075	  0.640858	  0.450687	  0.069864	  0.407580	  0.269074	  0.108183	  0.698063	  0.895568	  0.510153	  0.225853	  0.053561	  0.566019	  0.164048	  0.578287	  1.043720	  1.053877	
2.808	  0.645401	  0.454736	  0.070465	  0.406551	  0.266443	  0.107919	  0.691922	  0.887499	  0.512387	  0.227715	  0.054458	  0.568786	  0.164973	  0.580267	  1.041344	  1.055178	
